<svg xmlns="http://www.w3.org/2000/svg" width="165.491" height="28" viewBox="0 0 165.491 28">
  <defs>
    <style>
      .cls-1{fill:none}.cls-2{clip-path:url(#clip-path)}.cls-3{clip-path:url(#clip-path-2)}.cls-4{fill:#fff;fill-rule:evenodd}.cls-5{fill:#82aab1}
    </style>
    <clipPath id="clip-path">
      <path d="M0 0h165.492v28H0z" class="cls-1"/>
    </clipPath>
    <clipPath id="clip-path-2">
      <path d="M0 0h127.436v28H0z" class="cls-1"/>
    </clipPath>
  </defs>
  <g id="Logo_Beta_White" class="cls-2" data-name="Logo/Beta/White">
    <g id="logo" class="cls-3">
      <path id="Path_1677" d="M14.92 0l-3.407 15.967h8.518l1.833-8.589H41.6L43.172 0z" class="cls-4" data-name="Path 1677" transform="translate(-5.153)"/>
      <path id="Path_1678" d="M23.217 21.533l-1.844 8.639H1.574L0 37.549h28.318l3.418-16.016zm22.1 10.3a5.109 5.109 0 0 0 3.676 1.483 3.2 3.2 0 0 0 3.507-3.129c0-3.808-5.785-3.016-5.785-5.769a2.218 2.218 0 0 1 2.439-2 3.955 3.955 0 0 1 2.539.989l.56-.956a4.5 4.5 0 0 0-3.1-1.121 3.334 3.334 0 0 0-3.61 3.116c0 3.593 5.786 2.852 5.786 5.769a2.089 2.089 0 0 1-2.308 2.011 4.521 4.521 0 0 1-3.033-1.269zm14.968 1.285h1.138V22.555h4.154v-1.022H56.11v1.022h4.171zm17 0h1.2l-4.256-11.585h-1.22l-4.253 11.589h1.2L73.6 22.736h.033zm5.937-5.868a5.835 5.835 0 0 0 5.868 6.066 6.184 6.184 0 0 0 4.435-1.8l-.66-.808a5.418 5.418 0 0 1-3.758 1.55 4.775 4.775 0 0 1-4.7-5.027 4.633 4.633 0 0 1 4.665-4.847A5.447 5.447 0 0 1 92.6 23.67l.61-.84a5.885 5.885 0 0 0-4.171-1.5 5.749 5.749 0 0 0-5.82 5.918m15.328.33l3.313 5.538h1.335L99.5 27.039v-.033l3.461-5.472h-1.3l-3.116 5.028-.336.519zm10.633 5.538h2.885v-11.78h-2.885zm8.22-11.781v2.474h3.577v9.313h2.885v-9.314h3.576v-2.473z" class="cls-4" data-name="Path 1678" transform="translate(0 -9.549)"/>
    </g>
    <g id="Group_962" data-name="Group 962" transform="translate(-162.898 -293.781)">
      <path id="Path_1827" d="M295.9 293.781h3.155c1.715 0 2.914.767 2.914 2.242a2.1 2.1 0 0 1-1 1.824v.024a1.921 1.921 0 0 1 1.342 1.93c0 1.871-1.558 2.555-3.261 2.555h-3.15zm3.178 3.322a.725.725 0 0 0 .756-.791.7.7 0 0 0-.792-.732H298v1.52zm.18 3.454a.852.852 0 0 0 .912-.9.824.824 0 0 0-.9-.875H298v1.775z" class="cls-5" data-name="Path 1827"/>
      <path id="Path_1828" d="M305.007 293.781h5.373v1.8h-3.275v1.559h2.615v1.8h-2.615v1.619h3.443v1.8h-5.541z" class="cls-5" data-name="Path 1828"/>
      <path id="Path_1829" d="M314.9 295.58h-2.6v-1.8h7.3v1.8H317v6.776h-2.1z" class="cls-5" data-name="Path 1829"/>
      <path id="Path_1830" d="M325.7 300.557h-2.674l-.515 1.8h-2.16l2.915-8.575h2.207l2.914 8.575h-2.159zm-1.343-4.822s-.192.936-.347 1.476l-.492 1.667h1.691l-.48-1.667c-.156-.54-.348-1.476-.348-1.476z" class="cls-5" data-name="Path 1830"/>
    </g>
  </g>
</svg>
